<?xml version="1.0" standalone="yes"?>

<svg version="1.1" viewBox="0.0 0.0 970.6929133858267 459.9763779527559" fill="none" stroke="none" stroke-linecap="square" stroke-miterlimit="10" xmlns="http://www.w3.org/2000/svg" xmlns:xlink="http://www.w3.org/1999/xlink"><clipPath id="p.0"><path d="m0 0l970.69293 0l0 459.97638l-970.69293 0l0 -459.97638z" clip-rule="nonzero"></path></clipPath><g clip-path="url(#p.0)"><path fill="#000000" fill-opacity="0.0" d="m0 0l970.69293 0l0 459.97638l-970.69293 0z" fill-rule="evenodd"></path><path fill="#000000" fill-opacity="0.0" d="m71.76903 21.128609l429.29132 0l0 356.97638l-429.29132 0z" fill-rule="evenodd"></path><path stroke="#000000" stroke-width="4.0" stroke-linejoin="round" stroke-linecap="butt" d="m71.76903 21.128609l429.29132 0l0 356.97638l-429.29132 0z" fill-rule="evenodd"></path><path fill="#000000" fill-opacity="0.0" d="m526.4199 21.128609l429.29138 0l0 356.97638l-429.29138 0z" fill-rule="evenodd"></path><path stroke="#000000" stroke-width="4.0" stroke-linejoin="round" stroke-linecap="butt" d="m526.4199 21.128609l429.29138 0l0 356.97638l-429.29138 0z" fill-rule="evenodd"></path><path fill="#000000" fill-opacity="0.0" d="m71.76903 19.776379l0 358.33072l-56.7874 0l0 -358.33072z" fill-rule="evenodd"></path><path fill="#000000" d="m44.84903 146.84271l12.0 0l0 -4.46875l1.59375 0l0 10.76564l-1.59375 0l0 -4.5l-12.0 0l0 -1.7968903zm0 7.708481l9.859375 0l0 1.5l-1.5 0q1.046875 0.578125 1.375 1.0625q0.34375 0.484375 0.34375 1.078125q0 0.84375 -0.546875 1.71875l-1.546875 -0.578125q0.359375 -0.609375 0.359375 -1.234375q0 -0.546875 -0.328125 -0.984375q-0.328125 -0.421875 -0.90625 -0.609375q-0.890625 -0.28125 -1.953125 -0.28125l-5.15625 0l0 -1.671875zm1.21875 12.665802q-0.796875 -0.9375 -1.125 -1.796875q-0.3125 -0.859375 -0.3125 -1.84375q0 -1.609375 0.78125 -2.484375q0.796875 -0.875 2.03125 -0.875q0.734375 0 1.328125 0.328125q0.59375 0.328125 0.953125 0.859375q0.359375 0.53125 0.546875 1.203125q0.140625 0.5 0.25 1.484375q0.25 2.03125 0.578125 2.984375q0.34375 0 0.4375 0q1.015625 0 1.4375 -0.46875q0.5625 -0.640625 0.5625 -1.90625q0 -1.171875 -0.40625 -1.734375q-0.40625 -0.5625 -1.46875 -0.828125l0.234375 -1.640625q1.046875 0.234375 1.6875 0.734375q0.640625 0.515625 0.984375 1.46875q0.359375 0.96875 0.359375 2.25q0 1.265625 -0.296875 2.046875q-0.296875 0.78125 -0.75 1.15625q-0.453125 0.375 -1.140625 0.515625q-0.421875 0.09375 -1.53125 0.09375l-2.234375 0q-2.328125 0 -2.953125 0.09375q-0.609375 0.109375 -1.171875 0.4375l0 -1.75q0.515625 -0.265625 1.21875 -0.328125zm3.71875 -0.140625q-0.359375 -0.90625 -0.625 -2.734375q-0.140625 -1.03125 -0.328125 -1.453125q-0.1875 -0.421875 -0.546875 -0.65625q-0.359375 -0.234375 -0.796875 -0.234375q-0.671875 0 -1.125 0.5q-0.4375 0.515625 -0.4375 1.484375q0 0.96875 0.421875 1.71875q0.4375 0.75 1.15625 1.109375q0.578125 0.265625 1.671875 0.265625l0.609375 0zm6.75 4.0944824l1.90625 0l0 1.671875l-1.90625 0l0 -1.671875zm-11.6875 0l9.859375 0l0 1.671875l-9.859375 0l0 -1.671875zm0 4.129181l9.859375 0l0 1.5l-1.40625 0q1.625 1.09375 1.625 3.140625q0 0.890625 -0.328125 1.640625q-0.3125 0.75 -0.84375 1.109375q-0.515625 0.375 -1.21875 0.53125q-0.46875 0.09375 -1.625 0.09375l-6.0625 0l0 -1.671875l6.0 0q1.015625 0 1.515625 -0.203125q0.515625 -0.1875 0.8125 -0.6875q0.296875 -0.5 0.296875 -1.171875q0 -1.0625 -0.671875 -1.84375q-0.671875 -0.765625 -2.578125 -0.765625l-5.375 0l0 -1.671875zm11.6875 10.391357l1.90625 0l0 1.671875l-1.90625 0l0 -1.671875zm-11.6875 0l9.859375 0l0 1.671875l-9.859375 0l0 -1.671875zm0 4.129181l9.859375 0l0 1.5l-1.40625 0q1.625 1.09375 1.625 3.140625q0 0.890625 -0.328125 1.640625q-0.3125 0.75 -0.84375 1.109375q-0.515625 0.375 -1.21875 0.53125q-0.46875 0.09375 -1.625 0.09375l-6.0625 0l0 -1.671875l6.0 0q1.015625 0 1.515625 -0.203125q0.515625 -0.1875 0.8125 -0.6875q0.296875 -0.5 0.296875 -1.171875q0 -1.0625 -0.671875 -1.84375q-0.671875 -0.765625 -2.578125 -0.765625l-5.375 0l0 -1.671875zm-0.8125 10.078857l-0.25 1.609375q-0.75 0.109375 -1.09375 0.578125q-0.453125 0.609375 -0.453125 1.6875q0 1.171875 0.46875 1.796875q0.453125 0.625 1.28125 0.859375q0.515625 0.125 2.15625 0.109375q-1.296875 -1.09375 -1.296875 -2.71875q0 -2.03125 1.46875 -3.15625q1.46875 -1.109375 3.515625 -1.109375q1.40625 0 2.59375 0.515625q1.203125 0.515625 1.84375 1.484375q0.65625 0.96875 0.65625 2.265625q0 1.75 -1.40625 2.875l1.1875 0l0 1.546875l-8.515625 0q-2.3125 0 -3.265625 -0.46875q-0.96875 -0.46875 -1.515625 -1.484375q-0.5625 -1.015625 -0.5625 -2.5q0 -1.765625 0.796875 -2.859375q0.796875 -1.078125 2.390625 -1.03125zm5.921875 1.375q-1.953125 0 -2.84375 0.765625q-0.890625 0.78125 -0.890625 1.9375q0 1.140625 0.890625 1.921875q0.890625 0.78125 2.78125 0.78125q1.8125 0 2.71875 -0.8125q0.921875 -0.796875 0.921875 -1.921875q0 -1.109375 -0.90625 -1.890625q-0.890625 -0.78125 -2.671875 -0.78125zm-5.109375 14.730896l13.59375 0l0 9.84375l-1.59375 0l0 -8.046875l-4.171875 0l0 7.53125l-1.59375 0l0 -7.53125l-4.625 0l0 8.359375l-1.609375 0l0 -10.15625zm0 12.177948l9.859375 0l0 1.5l-1.5 0q1.046875 0.578125 1.375 1.0625q0.34375 0.484375 0.34375 1.078125q0 0.84375 -0.546875 1.71875l-1.546875 -0.578125q0.359375 -0.609375 0.359375 -1.234375q0 -0.546875 -0.328125 -0.984375q-0.328125 -0.421875 -0.90625 -0.609375q-0.890625 -0.28125 -1.953125 -0.28125l-5.15625 0l0 -1.671875zm0 6.212677l9.859375 0l0 1.5l-1.5 0q1.046875 0.578125 1.375 1.0625q0.34375 0.484375 0.34375 1.078125q0 0.84375 -0.546875 1.71875l-1.546875 -0.578125q0.359375 -0.609375 0.359375 -1.234375q0 -0.546875 -0.328125 -0.984375q-0.328125 -0.421875 -0.90625 -0.609375q-0.890625 -0.28125 -1.953125 -0.28125l-5.15625 0l0 -1.671875zm4.921875 5.603302q2.734375 0 4.0625 1.53125q1.09375 1.265625 1.09375 3.09375q0 2.03125 -1.34375 3.3125q-1.328125 1.296875 -3.671875 1.296875q-1.90625 0 -3.0 -0.578125q-1.078125 -0.5625 -1.6875 -1.65625q-0.59375 -1.078125 -0.59375 -2.375q0 -2.0625 1.328125 -3.34375q1.328125 -1.28125 3.8125 -1.28125zm0 1.71875q-1.890625 0 -2.828125 0.828125q-0.9375 0.828125 -0.9375 2.078125q0 1.25 0.9375 2.0625q0.953125 0.828125 2.890625 0.828125q1.828125 0 2.765625 -0.828125q0.9375 -0.828125 0.9375 -2.0625q0 -1.25 -0.9375 -2.078125q-0.9375 -0.828125 -2.828125 -0.828125zm-4.921875 9.266327l9.859375 0l0 1.5l-1.5 0q1.046875 0.578125 1.375 1.0625q0.34375 0.484375 0.34375 1.078125q0 0.84375 -0.546875 1.7187347l-1.546875 -0.57810974q0.359375 -0.609375 0.359375 -1.234375q0 -0.546875 -0.328125 -0.984375q-0.328125 -0.421875 -0.90625 -0.609375q-0.890625 -0.28125 -1.953125 -0.28125l-5.15625 0l0 -1.671875z" fill-rule="nonzero"></path><path fill="#000000" fill-opacity="0.0" d="m62.46194 381.69763l447.90552 0l0 45.417328l-447.90552 0z" fill-rule="evenodd"></path><path fill="#000000" d="m249.81113 408.61765l0 -13.59375l1.8125 0l0 13.59375l-1.8125 0zm8.323914 -1.5l0.234375 1.484375q-0.703125 0.140625 -1.265625 0.140625q-0.90625 0 -1.4062347 -0.28125q-0.5 -0.296875 -0.703125 -0.75q-0.203125 -0.46875 -0.203125 -1.984375l0 -5.65625l-1.234375 0l0 -1.3125l1.234375 0l0 -2.4375l1.6562347 -1.0l0 3.4375l1.6875 0l0 1.3125l-1.6875 0l0 5.75q0 0.71875 0.078125 0.921875q0.09375 0.203125 0.296875 0.328125q0.203125 0.125 0.578125 0.125q0.265625 0 0.734375 -0.078125zm8.277069 -1.671875l1.71875 0.21875q-0.40625 1.5 -1.515625 2.34375q-1.09375 0.828125 -2.8125 0.828125q-2.15625 0 -3.421875 -1.328125q-1.265625 -1.328125 -1.265625 -3.734375q0 -2.484375 1.265625 -3.859375q1.28125 -1.375 3.328125 -1.375q1.984375 0 3.234375 1.34375q1.25 1.34375 1.25 3.796875q0 0.140625 -0.015625 0.4375l-7.34375 0q0.09375 1.625 0.921875 2.484375q0.828125 0.859375 2.0625 0.859375q0.90625 0 1.546875 -0.46875q0.65625 -0.484375 1.046875 -1.546875zm-5.484375 -2.703125l5.5 0q-0.109375 -1.234375 -0.625 -1.859375q-0.796875 -0.96875 -2.078125 -0.96875q-1.140625 0 -1.9375 0.78125q-0.78125 0.765625 -0.859375 2.046875zm9.094452 5.875l0 -9.859375l1.5 0l0 1.5q0.578125 -1.046875 1.0625 -1.375q0.484375 -0.34375 1.078125 -0.34375q0.84375 0 1.71875 0.546875l-0.578125 1.546875q-0.609375 -0.359375 -1.234375 -0.359375q-0.546875 0 -0.984375 0.328125q-0.421875 0.328125 -0.609375 0.90625q-0.28125 0.890625 -0.28125 1.953125l0 5.15625l-1.671875 0zm12.665802 -1.21875q-0.9375 0.796875 -1.796875 1.125q-0.859375 0.3125 -1.84375 0.3125q-1.609375 0 -2.484375 -0.78125q-0.875 -0.796875 -0.875 -2.03125q0 -0.734375 0.328125 -1.328125q0.328125 -0.59375 0.859375 -0.953125q0.53125 -0.359375 1.203125 -0.546875q0.5 -0.140625 1.484375 -0.25q2.03125 -0.25 2.984375 -0.578125q0 -0.34375 0 -0.4375q0 -1.015625 -0.46875 -1.4375q-0.640625 -0.5625 -1.90625 -0.5625q-1.171875 0 -1.734375 0.40625q-0.5625 0.40625 -0.828125 1.46875l-1.640625 -0.234375q0.234375 -1.046875 0.734375 -1.6875q0.515625 -0.640625 1.46875 -0.984375q0.96875 -0.359375 2.25 -0.359375q1.265625 0 2.046875 0.296875q0.78125 0.296875 1.15625 0.75q0.375 0.453125 0.515625 1.140625q0.09375 0.421875 0.09375 1.53125l0 2.234375q0 2.328125 0.09375 2.953125q0.109375 0.609375 0.4375 1.171875l-1.75 0q-0.265625 -0.515625 -0.328125 -1.21875zm-0.140625 -3.71875q-0.90625 0.359375 -2.734375 0.625q-1.03125 0.140625 -1.453125 0.328125q-0.421875 0.1875 -0.65625 0.546875q-0.234375 0.359375 -0.234375 0.796875q0 0.671875 0.5 1.125q0.515625 0.4375 1.484375 0.4375q0.96875 0 1.71875 -0.421875q0.75 -0.4375 1.109375 -1.15625q0.265625 -0.578125 0.265625 -1.671875l0 -0.609375zm7.7351074 3.4375l0.234375 1.484375q-0.703125 0.140625 -1.265625 0.140625q-0.90625 0 -1.40625 -0.28125q-0.5 -0.296875 -0.703125 -0.75q-0.203125 -0.46875 -0.203125 -1.984375l0 -5.65625l-1.234375 0l0 -1.3125l1.234375 0l0 -2.4375l1.65625 -1.0l0 3.4375l1.6875 0l0 1.3125l-1.6875 0l0 5.75q0 0.71875 0.078125 0.921875q0.09375 0.203125 0.296875 0.328125q0.203125 0.125 0.578125 0.125q0.265625 0 0.734375 -0.078125zm1.5426636 -10.1875l0 -1.90625l1.671875 0l0 1.90625l-1.671875 0zm0 11.6875l0 -9.859375l1.671875 0l0 9.859375l-1.671875 0zm3.5042114 -4.921875q0 -2.734375 1.53125 -4.0625q1.265625 -1.09375 3.09375 -1.09375q2.03125 0 3.3125 1.34375q1.296875 1.328125 1.296875 3.671875q0 1.90625 -0.578125 3.0q-0.5625 1.078125 -1.65625 1.6875q-1.078125 0.59375 -2.375 0.59375q-2.0625 0 -3.34375 -1.328125q-1.28125 -1.328125 -1.28125 -3.8125zm1.71875 0q0 1.890625 0.828125 2.828125q0.828125 0.9375 2.078125 0.9375q1.25 0 2.0625 -0.9375q0.828125 -0.953125 0.828125 -2.890625q0 -1.828125 -0.828125 -2.765625q-0.828125 -0.9375 -2.0625 -0.9375q-1.25 0 -2.078125 0.9375q-0.828125 0.9375 -0.828125 2.828125zm9.281952 4.921875l0 -9.859375l1.5 0l0 1.40625q1.09375 -1.625 3.140625 -1.625q0.890625 0 1.640625 0.328125q0.75 0.3125 1.109375 0.84375q0.375 0.515625 0.53125 1.21875q0.09375 0.46875 0.09375 1.625l0 6.0625l-1.671875 0l0 -6.0q0 -1.015625 -0.203125 -1.515625q-0.1875 -0.515625 -0.6875 -0.8125q-0.5 -0.296875 -1.171875 -0.296875q-1.0625 0 -1.84375 0.671875q-0.765625 0.671875 -0.765625 2.578125l0 5.375l-1.671875 0zm9.703857 -2.9375l1.65625 -0.265625q0.140625 1.0 0.765625 1.53125q0.640625 0.515625 1.78125 0.515625q1.15625 0 1.703125 -0.46875q0.5625 -0.46875 0.5625 -1.09375q0 -0.5625 -0.484375 -0.890625q-0.34375 -0.21875 -1.703125 -0.5625q-1.84375 -0.46875 -2.5625 -0.796875q-0.703125 -0.34375 -1.078125 -0.9375q-0.359375 -0.609375 -0.359375 -1.328125q0 -0.65625 0.296875 -1.21875q0.3125 -0.5625 0.828125 -0.9375q0.390625 -0.28125 1.0625 -0.484375q0.671875 -0.203125 1.4375 -0.203125q1.171875 0 2.046875 0.34375q0.875 0.328125 1.28125 0.90625q0.421875 0.5625 0.578125 1.515625l-1.625 0.21875q-0.109375 -0.75 -0.65625 -1.171875q-0.53125 -0.4375 -1.5 -0.4375q-1.15625 0 -1.640625 0.390625q-0.484375 0.375 -0.484375 0.875q0 0.328125 0.203125 0.59375q0.203125 0.265625 0.640625 0.4375q0.25 0.09375 1.46875 0.4375q1.765625 0.46875 2.46875 0.765625q0.703125 0.296875 1.09375 0.875q0.40625 0.578125 0.40625 1.4375q0 0.828125 -0.484375 1.578125q-0.484375 0.734375 -1.40625 1.140625q-0.921875 0.390625 -2.078125 0.390625q-1.921875 0 -2.9375 -0.796875q-1.0 -0.796875 -1.28125 -2.359375z" fill-rule="nonzero"></path><path fill="#000000" fill-opacity="0.0" d="m507.8058 381.69763l447.90552 0l0 45.417328l-447.90552 0z" fill-rule="evenodd"></path><path fill="#000000" d="m695.15497 408.61765l0 -13.59375l1.8125 0l0 13.59375l-1.8125 0zm8.323914 -1.5l0.234375 1.484375q-0.703125 0.140625 -1.265625 0.140625q-0.90625 0 -1.40625 -0.28125q-0.5 -0.296875 -0.703125 -0.75q-0.203125 -0.46875 -0.203125 -1.984375l0 -5.65625l-1.234375 0l0 -1.3125l1.234375 0l0 -2.4375l1.65625 -1.0l0 3.4375l1.6875 0l0 1.3125l-1.6875 0l0 5.75q0 0.71875 0.078125 0.921875q0.09375 0.203125 0.296875 0.328125q0.203125 0.125 0.578125 0.125q0.265625 0 0.734375 -0.078125zm8.277039 -1.671875l1.71875 0.21875q-0.40625 1.5 -1.515625 2.34375q-1.09375 0.828125 -2.8125 0.828125q-2.15625 0 -3.421875 -1.328125q-1.265625 -1.328125 -1.265625 -3.734375q0 -2.484375 1.265625 -3.859375q1.28125 -1.375 3.328125 -1.375q1.984375 0 3.234375 1.34375q1.25 1.34375 1.25 3.796875q0 0.140625 -0.015625 0.4375l-7.34375 0q0.09375 1.625 0.921875 2.484375q0.828125 0.859375 2.0625 0.859375q0.90625 0 1.546875 -0.46875q0.65625 -0.484375 1.046875 -1.546875zm-5.484375 -2.703125l5.5 0q-0.109375 -1.234375 -0.625 -1.859375q-0.796875 -0.96875 -2.078125 -0.96875q-1.140625 0 -1.9375 0.78125q-0.78125 0.765625 -0.859375 2.046875zm9.094482 5.875l0 -9.859375l1.5 0l0 1.5q0.578125 -1.046875 1.0625 -1.375q0.484375 -0.34375 1.078125 -0.34375q0.84375 0 1.71875 0.546875l-0.578125 1.546875q-0.609375 -0.359375 -1.234375 -0.359375q-0.546875 0 -0.984375 0.328125q-0.421875 0.328125 -0.609375 0.90625q-0.28125 0.890625 -0.28125 1.953125l0 5.15625l-1.671875 0zm12.6658325 -1.21875q-0.9375 0.796875 -1.796875 1.125q-0.859375 0.3125 -1.84375 0.3125q-1.609375 0 -2.484375 -0.78125q-0.875 -0.796875 -0.875 -2.03125q0 -0.734375 0.328125 -1.328125q0.328125 -0.59375 0.859375 -0.953125q0.53125 -0.359375 1.203125 -0.546875q0.5 -0.140625 1.484375 -0.25q2.03125 -0.25 2.984375 -0.578125q0 -0.34375 0 -0.4375q0 -1.015625 -0.46875 -1.4375q-0.640625 -0.5625 -1.90625 -0.5625q-1.171875 0 -1.734375 0.40625q-0.5625 0.40625 -0.828125 1.46875l-1.640625 -0.234375q0.234375 -1.046875 0.734375 -1.6875q0.515625 -0.640625 1.46875 -0.984375q0.96875 -0.359375 2.25 -0.359375q1.265625 0 2.046875 0.296875q0.78125 0.296875 1.15625 0.75q0.375 0.453125 0.515625 1.140625q0.09375 0.421875 0.09375 1.53125l0 2.234375q0 2.328125 0.09375 2.953125q0.109375 0.609375 0.4375 1.171875l-1.75 0q-0.265625 -0.515625 -0.328125 -1.21875zm-0.140625 -3.71875q-0.90625 0.359375 -2.734375 0.625q-1.03125 0.140625 -1.453125 0.328125q-0.421875 0.1875 -0.65625 0.546875q-0.234375 0.359375 -0.234375 0.796875q0 0.671875 0.5 1.125q0.515625 0.4375 1.484375 0.4375q0.96875 0 1.71875 -0.421875q0.75 -0.4375 1.109375 -1.15625q0.265625 -0.578125 0.265625 -1.671875l0 -0.609375zm7.7350464 3.4375l0.234375 1.484375q-0.703125 0.140625 -1.265625 0.140625q-0.90625 0 -1.40625 -0.28125q-0.5 -0.296875 -0.703125 -0.75q-0.203125 -0.46875 -0.203125 -1.984375l0 -5.65625l-1.234375 0l0 -1.3125l1.234375 0l0 -2.4375l1.65625 -1.0l0 3.4375l1.6875 0l0 1.3125l-1.6875 0l0 5.75q0 0.71875 0.078125 0.921875q0.09375 0.203125 0.296875 0.328125q0.203125 0.125 0.578125 0.125q0.265625 0 0.734375 -0.078125zm1.5427246 -10.1875l0 -1.90625l1.671875 0l0 1.90625l-1.671875 0zm0 11.6875l0 -9.859375l1.671875 0l0 9.859375l-1.671875 0zm3.5041504 -4.921875q0 -2.734375 1.53125 -4.0625q1.265625 -1.09375 3.09375 -1.09375q2.03125 0 3.3125 1.34375q1.296875 1.328125 1.296875 3.671875q0 1.90625 -0.578125 3.0q-0.5625 1.078125 -1.65625 1.6875q-1.078125 0.59375 -2.375 0.59375q-2.0625 0 -3.34375 -1.328125q-1.28125 -1.328125 -1.28125 -3.8125zm1.71875 0q0 1.890625 0.828125 2.828125q0.828125 0.9375 2.078125 0.9375q1.25 0 2.0625 -0.9375q0.828125 -0.953125 0.828125 -2.890625q0 -1.828125 -0.828125 -2.765625q-0.828125 -0.9375 -2.0625 -0.9375q-1.25 0 -2.078125 0.9375q-0.828125 0.9375 -0.828125 2.828125zm9.281982 4.921875l0 -9.859375l1.5 0l0 1.40625q1.09375 -1.625 3.140625 -1.625q0.890625 0 1.640625 0.328125q0.75 0.3125 1.109375 0.84375q0.375 0.515625 0.53125 1.21875q0.09375 0.46875 0.09375 1.625l0 6.0625l-1.671875 0l0 -6.0q0 -1.015625 -0.203125 -1.515625q-0.1875 -0.515625 -0.6875 -0.8125q-0.5 -0.296875 -1.171875 -0.296875q-1.0625 0 -1.84375 0.671875q-0.765625 0.671875 -0.765625 2.578125l0 5.375l-1.671875 0zm9.703857 -2.9375l1.65625 -0.265625q0.140625 1.0 0.765625 1.53125q0.640625 0.515625 1.78125 0.515625q1.15625 0 1.703125 -0.46875q0.5625 -0.46875 0.5625 -1.09375q0 -0.5625 -0.484375 -0.890625q-0.34375 -0.21875 -1.703125 -0.5625q-1.84375 -0.46875 -2.5625 -0.796875q-0.703125 -0.34375 -1.078125 -0.9375q-0.359375 -0.609375 -0.359375 -1.328125q0 -0.65625 0.296875 -1.21875q0.3125 -0.5625 0.828125 -0.9375q0.390625 -0.28125 1.0625 -0.484375q0.671875 -0.203125 1.4375 -0.203125q1.171875 0 2.046875 0.34375q0.875 0.328125 1.28125 0.90625q0.421875 0.5625 0.578125 1.515625l-1.625 0.21875q-0.109375 -0.75 -0.65625 -1.171875q-0.53125 -0.4375 -1.5 -0.4375q-1.15625 0 -1.640625 0.390625q-0.484375 0.375 -0.484375 0.875q0 0.328125 0.203125 0.59375q0.203125 0.265625 0.640625 0.4375q0.25 0.09375 1.46875 0.4375q1.765625 0.46875 2.46875 0.765625q0.703125 0.296875 1.09375 0.875q0.40625 0.578125 0.40625 1.4375q0 0.828125 -0.484375 1.578125q-0.484375 0.734375 -1.40625 1.140625q-0.921875 0.390625 -2.078125 0.390625q-1.921875 0 -2.9375 -0.796875q-1.0 -0.796875 -1.28125 -2.359375z" fill-rule="nonzero"></path><path fill="#000000" fill-opacity="0.0" d="m95.43044 45.466667c0.9855652 8.991024 1.6881027 32.08197 5.913391 53.94615c4.225281 21.864174 5.776024 58.950966 19.438316 77.238914c13.6622925 18.287949 45.21173 22.987183 62.53543 32.488785c17.323715 9.501602 32.392838 15.631958 41.40683 24.520798c9.013992 8.888855 4.9304504 21.149567 12.67717 28.812286c7.7467194 7.6627197 22.253723 6.742798 33.80313 17.164001c11.549438 10.421173 -0.84469604 35.04416 35.49344 45.36319c36.338165 10.319031 152.11288 13.79245 182.53543 16.550934" fill-rule="evenodd"></path><path stroke="#000000" stroke-width="2.0" stroke-linejoin="round" stroke-linecap="butt" d="m95.43044 45.466667c0.9855652 8.991024 1.6881027 32.08197 5.913391 53.94615c4.225281 21.864174 5.776024 58.950966 19.438316 77.238914c13.6622925 18.287949 45.21173 22.987183 62.53543 32.488785c17.323715 9.501602 32.392838 15.631958 41.40683 24.520798c9.013992 8.888855 4.9304504 21.149567 12.67717 28.812286c7.7467194 7.6627197 22.253723 6.742798 33.80313 17.164001c11.549438 10.421173 -0.84469604 35.04416 35.49344 45.36319c36.338165 10.319031 152.11288 13.79245 182.53543 16.550934" fill-rule="evenodd"></path><path fill="#000000" fill-opacity="0.0" d="m534.021 31.270342c0.9783325 14.867914 1.1079712 29.774782 2.5354614 44.619423c0.5546875 5.768532 0.50115967 5.7850266 1.6902466 11.491867c0.48358154 2.3209229 0.45568848 8.424942 2.5354614 6.761154c2.5895996 -2.0717087 3.9448242 -11.034592 4.225708 -8.113388c1.9188232 19.955833 -1.0494995 41.592194 10.139099 59.493965c1.803894 2.8861694 1.1568604 -6.4331055 2.5354614 -9.465622c4.694092 -10.325577 11.991516 -19.771416 17.747986 -29.746979c2.2400513 -3.8817825 5.070923 -16.443443 5.070923 -12.167976c0 21.887993 -4.225769 43.68891 -4.225769 65.5769c0 8.34111 0.29718018 16.6846 0.8451538 25.014175c0.26818848 4.0760193 1.6903076 16.25174 1.6903076 12.170074c0 -14.957001 22.818909 -24.347305 28.7323 -38.536484c2.725647 -6.5402985 -3.5495605 -20.281357 5.0682373 -20.281357c9.0928955 0 4.73053 14.056519 7.606262 20.957474c8.407471 20.175583 15.914551 40.667816 21.125977 61.52231c1.635376 6.544037 3.5100098 13.049606 5.070862 19.605255c0.7290039 3.0616913 0.9008789 9.137131 1.6903076 6.085037c4.8358765 -18.696762 0.047851562 -40.839127 14.367432 -56.113388c7.8406982 -8.363373 3.5618286 20.714935 5.070923 31.099213c3.4647217 23.84224 9.947754 47.53865 19.435669 70.30971c1.673584 4.016632 16.129578 -58.45401 16.900269 -56.78949c8.252808 17.82402 9.220032 37.308167 12.677185 56.113373c3.0523682 16.603485 2.439087 16.70346 6.7611084 33.125458c0.77874756 2.9588318 0.89172363 7.6845093 3.3806152 5.4089355c7.2336426 -6.6138306 3.2792969 -8.470459 8.4487915 -16.22467c8.389343 -12.583893 8.56897 -12.544495 18.5932 -24.338074c13.66626 -16.07846 11.61615 -11.863556 11.829407 -11.4939575c10.422913 18.066437 7.249634 39.80365 16.902832 58.141754c0.82006836 1.5577698 1.5135498 -1.2250366 2.5354614 -2.7044678c8.655273 -12.530334 12.269287 -28.090057 25.351685 -37.858276c2.6385498 -1.9701233 1.7022705 2.5974426 2.5354614 5.40683c5.0891724 17.15979 4.720276 17.227356 9.293945 34.479797c1.3411255 5.0587463 -3.2462158 7.8290405 2.5354614 10.141724c4.6135864 1.8454285 3.190796 -3.2575684 5.9160156 -6.7611694c9.1119995 -11.7146 9.157227 -11.6979065 17.747986 -23.661926c2.8236694 -3.932434 0.71325684 -11.016571 5.0682373 -8.113403c11.502441 7.6679077 6.5839233 23.37616 9.296631 35.155914c0.6311035 2.74057 -1.2636108 6.8837585 1.6902466 5.40683c15.306213 -7.6531067 14.048828 -26.603027 21.126038 -39.886627c2.7421265 -5.146881 -0.9418335 -9.042358 5.9159546 -10.139618c5.5270996 -0.8843384 0.9868164 4.4516907 2.5354614 8.787384c5.21521 14.600891 5.890625 14.443146 10.986877 29.070892c2.0916138 6.003601 -0.70129395 6.859497 3.3805542 12.167969c1.416748 1.8424683 1.6889038 -1.6893005 3.3779907 -3.378479c4.171814 -4.1721497 7.1846313 -9.129822 9.29657 -14.198425" fill-rule="evenodd"></path><path stroke="#000000" stroke-width="2.0" stroke-linejoin="round" stroke-linecap="butt" d="m534.021 31.270342c0.9783325 14.867914 1.1079712 29.774782 2.5354614 44.619423c0.5546875 5.768532 0.50115967 5.7850266 1.6902466 11.491867c0.48358154 2.3209229 0.45568848 8.424942 2.5354614 6.761154c2.5895996 -2.0717087 3.9448242 -11.034592 4.225708 -8.113388c1.9188232 19.955833 -1.0494995 41.592194 10.139099 59.493965c1.803894 2.8861694 1.1568604 -6.4331055 2.5354614 -9.465622c4.694092 -10.325577 11.991516 -19.771416 17.747986 -29.746979c2.2400513 -3.8817825 5.070923 -16.443443 5.070923 -12.167976c0 21.887993 -4.225769 43.68891 -4.225769 65.5769c0 8.34111 0.29718018 16.6846 0.8451538 25.014175c0.26818848 4.0760193 1.6903076 16.25174 1.6903076 12.170074c0 -14.957001 22.818909 -24.347305 28.7323 -38.536484c2.725647 -6.5402985 -3.5495605 -20.281357 5.0682373 -20.281357c9.0928955 0 4.73053 14.056519 7.606262 20.957474c8.407471 20.175583 15.914551 40.667816 21.125977 61.52231c1.635376 6.544037 3.5100098 13.049606 5.070862 19.605255c0.7290039 3.0616913 0.9008789 9.137131 1.6903076 6.085037c4.8358765 -18.696762 0.047851562 -40.839127 14.367432 -56.113388c7.8406982 -8.363373 3.5618286 20.714935 5.070923 31.099213c3.4647217 23.84224 9.947754 47.53865 19.435669 70.30971c1.673584 4.016632 16.129578 -58.45401 16.900269 -56.78949c8.252808 17.82402 9.220032 37.308167 12.677185 56.113373c3.0523682 16.603485 2.439087 16.70346 6.7611084 33.125458c0.77874756 2.9588318 0.89172363 7.6845093 3.3806152 5.4089355c7.2336426 -6.6138306 3.2792969 -8.470459 8.4487915 -16.22467c8.389343 -12.583893 8.56897 -12.544495 18.5932 -24.338074c13.66626 -16.07846 11.61615 -11.863556 11.829407 -11.4939575c10.422913 18.066437 7.249634 39.80365 16.902832 58.141754c0.82006836 1.5577698 1.5135498 -1.2250366 2.5354614 -2.7044678c8.655273 -12.530334 12.269287 -28.090057 25.351685 -37.858276c2.6385498 -1.9701233 1.7022705 2.5974426 2.5354614 5.40683c5.0891724 17.15979 4.720276 17.227356 9.293945 34.479797c1.3411255 5.0587463 -3.2462158 7.8290405 2.5354614 10.141724c4.6135864 1.8454285 3.190796 -3.2575684 5.9160156 -6.7611694c9.1119995 -11.7146 9.157227 -11.6979065 17.747986 -23.661926c2.8236694 -3.932434 0.71325684 -11.016571 5.0682373 -8.113403c11.502441 7.6679077 6.5839233 23.37616 9.296631 35.155914c0.6311035 2.74057 -1.2636108 6.8837585 1.6902466 5.40683c15.306213 -7.6531067 14.048828 -26.603027 21.126038 -39.886627c2.7421265 -5.146881 -0.9418335 -9.042358 5.9159546 -10.139618c5.5270996 -0.8843384 0.9868164 4.4516907 2.5354614 8.787384c5.21521 14.600891 5.890625 14.443146 10.986877 29.070892c2.0916138 6.003601 -0.70129395 6.859497 3.3805542 12.167969c1.416748 1.8424683 1.6889038 -1.6893005 3.3779907 -3.378479c4.171814 -4.1721497 7.1846313 -9.129822 9.29657 -14.198425" fill-rule="evenodd"></path><path fill="#000000" fill-opacity="0.0" d="m71.76903 409.86142l429.29132 0l0 45.417328l-429.29132 0z" fill-rule="evenodd"></path><path fill="#000000" d="m196.7858 435.58893l0 -2.90625l7.484375 0l0 6.84375q-1.09375 1.0625 -3.171875 1.875q-2.0625 0.796875 -4.171875 0.796875q-2.703125 0 -4.703125 -1.125q-2.0 -1.140625 -3.015625 -3.234375q-1.0 -2.109375 -1.0 -4.59375q0 -2.671875 1.125 -4.75q1.125 -2.09375 3.28125 -3.21875q1.65625 -0.84375 4.125 -0.84375q3.1875 0 4.984375 1.34375q1.8125 1.328125 2.328125 3.703125l-3.453125 0.640625q-0.359375 -1.265625 -1.359375 -2.0q-1.0 -0.734375 -2.5 -0.734375q-2.28125 0 -3.625 1.453125q-1.34375 1.4375 -1.34375 4.265625q0 3.0625 1.359375 4.59375q1.359375 1.53125 3.5625 1.53125q1.09375 0 2.1875 -0.421875q1.09375 -0.4375 1.890625 -1.046875l0 -2.171875l-3.984375 0zm13.808594 6.3125l-3.296875 0l0 -12.453125l3.0625 0l0 1.78125q0.78125 -1.265625 1.40625 -1.65625q0.640625 -0.40625 1.4375 -0.40625q1.125 0 2.15625 0.625l-1.015625 2.875q-0.828125 -0.546875 -1.546875 -0.546875q-0.6875 0 -1.171875 0.390625q-0.484375 0.375 -0.765625 1.375q-0.265625 1.0 -0.265625 4.171875l0 3.84375zm8.652344 -8.65625l-2.984375 -0.53125q0.5 -1.8125 1.71875 -2.671875q1.234375 -0.875 3.671875 -0.875q2.203125 0 3.28125 0.53125q1.078125 0.515625 1.515625 1.328125q0.4375 0.796875 0.4375 2.9375l-0.03125 3.84375q0 1.640625 0.15625 2.421875q0.15625 0.78125 0.59375 1.671875l-3.265625 0q-0.125 -0.328125 -0.3125 -0.96875q-0.078125 -0.296875 -0.125 -0.390625q-0.84375 0.8125 -1.8125 1.234375q-0.953125 0.40625 -2.03125 0.40625q-1.921875 0 -3.03125 -1.046875q-1.109375 -1.046875 -1.109375 -2.640625q0 -1.046875 0.5 -1.875q0.5 -0.828125 1.40625 -1.265625q0.921875 -0.4375 2.625 -0.765625q2.3125 -0.4375 3.203125 -0.8125l0 -0.328125q0 -0.953125 -0.46875 -1.34375q-0.46875 -0.40625 -1.765625 -0.40625q-0.890625 0 -1.390625 0.34375q-0.484375 0.34375 -0.78125 1.203125zm4.40625 2.671875q-0.640625 0.21875 -2.015625 0.515625q-1.359375 0.28125 -1.78125 0.5625q-0.640625 0.46875 -0.640625 1.171875q0 0.6875 0.515625 1.1875q0.515625 0.5 1.3125 0.5q0.890625 0 1.6875 -0.578125q0.609375 -0.453125 0.796875 -1.09375q0.125 -0.421875 0.125 -1.609375l0 -0.65625zm17.894531 5.984375l-3.0625 0l0 -1.828125q-0.765625 1.0625 -1.796875 1.59375q-1.03125 0.515625 -2.09375 0.515625q-2.140625 0 -3.671875 -1.71875q-1.53125 -1.734375 -1.53125 -4.828125q0 -3.171875 1.484375 -4.8125q1.5 -1.65625 3.765625 -1.65625q2.09375 0 3.609375 1.734375l0 -6.1875l3.296875 0l0 17.1875zm-8.796875 -6.5q0 2.0 0.5625 2.890625q0.796875 1.28125 2.21875 1.28125q1.140625 0 1.9375 -0.953125q0.796875 -0.96875 0.796875 -2.890625q0 -2.15625 -0.78125 -3.09375q-0.765625 -0.9375 -1.96875 -0.9375q-1.171875 0 -1.96875 0.9375q-0.796875 0.921875 -0.796875 2.765625zm12.035156 -7.640625l0 -3.046875l3.296875 0l0 3.046875l-3.296875 0zm0 14.140625l0 -12.453125l3.296875 0l0 12.453125l-3.296875 0zm13.886719 -3.96875l3.28125 0.5625q-0.640625 1.796875 -2.015625 2.75q-1.359375 0.9375 -3.40625 0.9375q-3.25 0 -4.796875 -2.125q-1.234375 -1.703125 -1.234375 -4.28125q0 -3.09375 1.609375 -4.84375q1.625 -1.765625 4.09375 -1.765625q2.78125 0 4.375 1.84375q1.609375 1.828125 1.546875 5.609375l-8.25 0q0.03125 1.46875 0.796875 2.28125q0.765625 0.8125 1.890625 0.8125q0.78125 0 1.296875 -0.421875q0.53125 -0.421875 0.8125 -1.359375zm0.1875 -3.328125q-0.046875 -1.421875 -0.75 -2.15625q-0.703125 -0.75 -1.703125 -0.75q-1.078125 0 -1.78125 0.78125q-0.703125 0.78125 -0.6875 2.125l4.921875 0zm17.269531 7.296875l-3.296875 0l0 -6.359375q0 -2.015625 -0.21875 -2.59375q-0.203125 -0.59375 -0.6875 -0.921875q-0.46875 -0.328125 -1.125 -0.328125q-0.859375 0 -1.546875 0.46875q-0.671875 0.46875 -0.921875 1.25q-0.25 0.765625 -0.25 2.84375l0 5.640625l-3.296875 0l0 -12.453125l3.0625 0l0 1.828125q1.625 -2.109375 4.09375 -2.109375q1.09375 0 1.984375 0.40625q0.90625 0.390625 1.375 1.0q0.46875 0.609375 0.640625 1.390625q0.1875 0.765625 0.1875 2.203125l0 7.734375zm9.050781 -12.453125l0 2.625l-2.25 0l0 5.015625q0 1.53125 0.0625 1.78125q0.0625 0.25 0.28125 0.421875q0.234375 0.15625 0.5625 0.15625q0.453125 0 1.328125 -0.3125l0.28125 2.546875q-1.15625 0.5 -2.609375 0.5q-0.890625 0 -1.609375 -0.296875q-0.703125 -0.296875 -1.046875 -0.765625q-0.328125 -0.484375 -0.453125 -1.296875q-0.109375 -0.578125 -0.109375 -2.3125l0 -5.4375l-1.515625 0l0 -2.625l1.515625 0l0 -2.46875l3.3125 -1.921875l0 4.390625l2.25 0zm8.957031 -4.734375l6.34375 0q2.140625 0 3.265625 0.328125q1.515625 0.453125 2.59375 1.59375q1.078125 1.125 1.640625 2.78125q0.5625 1.640625 0.5625 4.0625q0 2.109375 -0.53125 3.65625q-0.640625 1.875 -1.84375 3.03125q-0.890625 0.875 -2.4375 1.375q-1.140625 0.359375 -3.0625 0.359375l-6.53125 0l0 -17.1875zm3.46875 2.90625l0 11.390625l2.59375 0q1.453125 0 2.09375 -0.171875q0.84375 -0.203125 1.390625 -0.703125q0.5625 -0.515625 0.90625 -1.671875q0.359375 -1.15625 0.359375 -3.140625q0 -2.0 -0.359375 -3.0625q-0.34375 -1.0625 -0.984375 -1.65625q-0.625 -0.609375 -1.59375 -0.8125q-0.71875 -0.171875 -2.84375 -0.171875l-1.5625 0zm21.066406 10.3125l3.28125 0.5625q-0.640625 1.796875 -2.015625 2.75q-1.359375 0.9375 -3.40625 0.9375q-3.25 0 -4.796875 -2.125q-1.234375 -1.703125 -1.234375 -4.28125q0 -3.09375 1.609375 -4.84375q1.625 -1.765625 4.09375 -1.765625q2.78125 0 4.375 1.84375q1.609375 1.828125 1.546875 5.609375l-8.25 0q0.03125 1.46875 0.796875 2.28125q0.765625 0.8125 1.890625 0.8125q0.78125 0 1.296875 -0.421875q0.53125 -0.421875 0.8125 -1.359375zm0.1875 -3.328125q-0.046875 -1.421875 -0.75 -2.15625q-0.703125 -0.75 -1.703125 -0.75q-1.078125 0 -1.78125 0.78125q-0.703125 0.78125 -0.6875 2.125l4.921875 0zm4.7851562 3.75l3.3125 -0.515625q0.203125 0.96875 0.8437805 1.46875q0.65625 0.5 1.8125 0.5q1.28125 0 1.921875 -0.46875q0.4375 -0.328125 0.4375 -0.890625q0 -0.375 -0.234375 -0.609375q-0.25 -0.234375 -1.109375 -0.4375q-3.9844055 -0.875 -5.0469055 -1.609375q-1.484375 -1.0 -1.484375 -2.796875q0 -1.625 1.28125 -2.71875q1.28125 -1.109375 3.9687805 -1.109375q2.546875 0 3.78125 0.84375q1.25 0.828125 1.71875 2.453125l-3.109375 0.578125q-0.1875 -0.734375 -0.75 -1.109375q-0.5625 -0.390625 -1.59375 -0.390625q-1.296875 0 -1.8594055 0.359375q-0.375 0.265625 -0.375 0.671875q0 0.34375 0.328125 0.59375q0.45315552 0.328125 3.0781555 0.9375q2.625 0.59375 3.671875 1.453125q1.03125 0.875 1.03125 2.453125q0 1.703125 -1.4375 2.9375q-1.421875 1.234375 -4.21875 1.234375q-2.5469055 0 -4.0312805 -1.03125q-1.484375 -1.03125 -1.9375 -2.796875zm25.363312 -5.21875l-3.25 0.578125q-0.15625 -0.96875 -0.75 -1.453125q-0.578125 -0.5 -1.5 -0.5q-1.234375 0 -1.96875 0.859375q-0.71875 0.84375 -0.71875 2.828125q0 2.21875 0.734375 3.140625q0.75 0.90625 2.0 0.90625q0.9375 0 1.53125 -0.53125q0.609375 -0.53125 0.84375 -1.828125l3.234375 0.546875q-0.5 2.21875 -1.9375 3.359375q-1.421875 1.140625 -3.828125 1.140625q-2.71875 0 -4.34375 -1.71875q-1.625 -1.734375 -1.625 -4.78125q0 -3.078125 1.625 -4.796875q1.625 -1.71875 4.40625 -1.71875q2.28125 0 3.609375 0.984375q1.34375 0.984375 1.9375 2.984375zm9.707031 4.796875l3.28125 0.5625q-0.640625 1.796875 -2.015625 2.75q-1.359375 0.9375 -3.40625 0.9375q-3.25 0 -4.796875 -2.125q-1.234375 -1.703125 -1.234375 -4.28125q0 -3.09375 1.609375 -4.84375q1.625 -1.765625 4.09375 -1.765625q2.78125 0 4.375 1.84375q1.609375 1.828125 1.546875 5.609375l-8.25 0q0.03125 1.46875 0.796875 2.28125q0.765625 0.8125 1.890625 0.8125q0.78125 0 1.296875 -0.421875q0.53125 -0.421875 0.8125 -1.359375zm0.1875 -3.328125q-0.046875 -1.421875 -0.75 -2.15625q-0.703125 -0.75 -1.703125 -0.75q-1.078125 0 -1.78125 0.78125q-0.703125 0.78125 -0.6875 2.125l4.921875 0zm17.269531 7.296875l-3.296875 0l0 -6.359375q0 -2.015625 -0.21875 -2.59375q-0.203125 -0.59375 -0.6875 -0.921875q-0.46875 -0.328125 -1.125 -0.328125q-0.859375 0 -1.546875 0.46875q-0.671875 0.46875 -0.921875 1.25q-0.25 0.765625 -0.25 2.84375l0 5.640625l-3.296875 0l0 -12.453125l3.0625 0l0 1.828125q1.625 -2.109375 4.09375 -2.109375q1.09375 0 1.984375 0.40625q0.90625 0.390625 1.375 1.0q0.46875 0.609375 0.640625 1.390625q0.1875 0.765625 0.1875 2.203125l0 7.734375zm9.050781 -12.453125l0 2.625l-2.25 0l0 5.015625q0 1.53125 0.0625 1.78125q0.0625 0.25 0.28125 0.421875q0.234375 0.15625 0.5625 0.15625q0.453125 0 1.328125 -0.3125l0.28125 2.546875q-1.15625 0.5 -2.609375 0.5q-0.890625 0 -1.609375 -0.296875q-0.703125 -0.296875 -1.046875 -0.765625q-0.328125 -0.484375 -0.453125 -1.296875q-0.109375 -0.578125 -0.109375 -2.3125l0 -5.4375l-1.515625 0l0 -2.625l1.515625 0l0 -2.46875l3.3125 -1.921875l0 4.390625l2.25 0z" fill-rule="nonzero"></path><path fill="#000000" fill-opacity="0.0" d="m526.4199 409.86142l429.29138 0l0 45.417328l-429.29138 0z" fill-rule="evenodd"></path><path fill="#000000" d="m578.5578 436.30768l3.375 -0.328125q0.296875 1.703125 1.21875 2.5q0.9375 0.796875 2.53125 0.796875q1.671875 0 2.515625 -0.703125q0.859375 -0.71875 0.859375 -1.671875q0 -0.609375 -0.359375 -1.03125q-0.359375 -0.421875 -1.25 -0.75q-0.609375 -0.203125 -2.78125 -0.75q-2.78125 -0.6875 -3.90625 -1.6875q-1.59375 -1.421875 -1.59375 -3.46875q0 -1.3125 0.75 -2.453125q0.75 -1.140625 2.140625 -1.734375q1.40625 -0.59375 3.390625 -0.59375q3.234375 0 4.859375 1.421875q1.640625 1.40625 1.71875 3.78125l-3.46875 0.140625q-0.21875 -1.3125 -0.953125 -1.890625q-0.734375 -0.59375 -2.203125 -0.59375q-1.5 0 -2.359375 0.625q-0.546875 0.40625 -0.546875 1.0625q0 0.609375 0.515625 1.046875q0.65625 0.546875 3.1875 1.15625q2.53125 0.59375 3.734375 1.234375q1.21875 0.640625 1.90625 1.75q0.6875 1.09375 0.6875 2.734375q0 1.46875 -0.828125 2.765625q-0.8125 1.28125 -2.3125 1.921875q-1.5 0.625 -3.75 0.625q-3.25 0 -5.0 -1.5q-1.75 -1.515625 -2.078125 -4.40625zm22.570312 -6.859375l0 2.625l-2.25 0l0 5.015625q0 1.53125 0.0625 1.78125q0.0625 0.25 0.28125 0.421875q0.234375 0.15625 0.5625 0.15625q0.453125 0 1.328125 -0.3125l0.28125 2.546875q-1.15625 0.5 -2.609375 0.5q-0.890625 0 -1.609375 -0.296875q-0.703125 -0.296875 -1.046875 -0.765625q-0.328125 -0.484375 -0.453125 -1.296875q-0.109375 -0.578125 -0.109375 -2.3125l0 -5.4375l-1.515625 0l0 -2.625l1.515625 0l0 -2.46875l3.3125 -1.921875l0 4.390625l2.25 0zm1.5234375 6.046875q0 -1.640625 0.796875 -3.171875q0.8125 -1.53125 2.296875 -2.34375q1.484375 -0.8125 3.3125 -0.8125q2.828125 0 4.625 1.84375q1.8125 1.828125 1.8125 4.625q0 2.828125 -1.828125 4.6875q-1.828125 1.859375 -4.59375 1.859375q-1.703125 0 -3.265625 -0.765625q-1.546875 -0.78125 -2.359375 -2.265625q-0.796875 -1.5 -0.796875 -3.65625zm3.375 0.1875q0 1.84375 0.875 2.828125q0.875 0.984375 2.171875 0.984375q1.28125 0 2.15625 -0.984375q0.875 -0.984375 0.875 -2.859375q0 -1.828125 -0.875 -2.8125q-0.875 -0.984375 -2.15625 -0.984375q-1.296875 0 -2.171875 0.984375q-0.875 0.984375 -0.875 2.84375zm22.894531 -2.546875l-3.25 0.578125q-0.15625 -0.96875 -0.75 -1.453125q-0.578125 -0.5 -1.5 -0.5q-1.234375 0 -1.96875 0.859375q-0.71875 0.84375 -0.71875 2.828125q0 2.21875 0.734375 3.140625q0.75 0.90625 2.0 0.90625q0.9375 0 1.53125 -0.53125q0.609375 -0.53125 0.84375 -1.828125l3.234375 0.546875q-0.5 2.21875 -1.9375 3.359375q-1.421875 1.140625 -3.828125 1.140625q-2.71875 0 -4.34375 -1.71875q-1.625 -1.734375 -1.625 -4.78125q0 -3.078125 1.625 -4.796875q1.625 -1.71875 4.40625 -1.71875q2.28125 0 3.609375 0.984375q1.34375 0.984375 1.9375 2.984375zm5.7695312 -8.421875l0 6.328125q1.59375 -1.875 3.8125 -1.875q1.140625 0 2.046875 0.421875q0.921875 0.421875 1.375 1.078125q0.46875 0.65625 0.640625 1.453125q0.171875 0.796875 0.171875 2.484375l0 7.296875l-3.296875 0l0 -6.578125q0 -1.953125 -0.1875 -2.484375q-0.1875 -0.53125 -0.671875 -0.828125q-0.46875 -0.3125 -1.171875 -0.3125q-0.828125 0 -1.46875 0.40625q-0.640625 0.390625 -0.953125 1.1875q-0.296875 0.796875 -0.296875 2.375l0 6.234375l-3.28125 0l0 -17.1875l3.28125 0zm13.847656 8.53125l-2.984375 -0.53125q0.5 -1.8125 1.71875 -2.671875q1.234375 -0.875 3.671875 -0.875q2.203125 0 3.28125 0.53125q1.078125 0.515625 1.515625 1.328125q0.4375 0.796875 0.4375 2.9375l-0.03125 3.84375q0 1.640625 0.15625 2.421875q0.15625 0.78125 0.59375 1.671875l-3.265625 0q-0.125 -0.328125 -0.3125 -0.96875q-0.078125 -0.296875 -0.125 -0.390625q-0.84375 0.8125 -1.8125 1.234375q-0.953125 0.40625 -2.03125 0.40625q-1.921875 0 -3.03125 -1.046875q-1.109375 -1.046875 -1.109375 -2.640625q0 -1.046875 0.5 -1.875q0.5 -0.828125 1.40625 -1.265625q0.921875 -0.4375 2.625 -0.765625q2.3125 -0.4375 3.203125 -0.8125l0 -0.328125q0 -0.953125 -0.46875 -1.34375q-0.46875 -0.40625 -1.765625 -0.40625q-0.890625 0 -1.390625 0.34375q-0.484375 0.34375 -0.78125 1.203125zm4.40625 2.671875q-0.640625 0.21875 -2.015625 0.515625q-1.359375 0.28125 -1.78125 0.5625q-0.640625 0.46875 -0.640625 1.171875q0 0.6875 0.515625 1.1875q0.515625 0.5 1.3125 0.5q0.890625 0 1.6875 -0.578125q0.609375 -0.453125 0.796875 -1.09375q0.125 -0.421875 0.125 -1.609375l0 -0.65625zm5.3164062 2.4375l3.3125 -0.515625q0.203125 0.96875 0.84375 1.46875q0.65625 0.5 1.8125 0.5q1.28125 0 1.921875 -0.46875q0.4375 -0.328125 0.4375 -0.890625q0 -0.375 -0.234375 -0.609375q-0.25 -0.234375 -1.109375 -0.4375q-3.984375 -0.875 -5.046875 -1.609375q-1.484375 -1.0 -1.484375 -2.796875q0 -1.625 1.28125 -2.71875q1.28125 -1.109375 3.96875 -1.109375q2.546875 0 3.78125 0.84375q1.25 0.828125 1.71875 2.453125l-3.109375 0.578125q-0.1875 -0.734375 -0.75 -1.109375q-0.5625 -0.390625 -1.59375 -0.390625q-1.296875 0 -1.859375 0.359375q-0.375 0.265625 -0.375 0.671875q0 0.34375 0.328125 0.59375q0.453125 0.328125 3.078125 0.9375q2.625 0.59375 3.671875 1.453125q1.03125 0.875 1.03125 2.453125q0 1.703125 -1.4375 2.9375q-1.421875 1.234375 -4.21875 1.234375q-2.546875 0 -4.03125 -1.03125q-1.484375 -1.03125 -1.9375 -2.796875zm20.222656 -8.90625l0 2.625l-2.25 0l0 5.015625q0 1.53125 0.0625 1.78125q0.0625 0.25 0.28125 0.421875q0.234375 0.15625 0.5625 0.15625q0.453125 0 1.328125 -0.3125l0.28125 2.546875q-1.15625 0.5 -2.609375 0.5q-0.890625 0 -1.609375 -0.296875q-0.703125 -0.296875 -1.046875 -0.765625q-0.328125 -0.484375 -0.453125 -1.296875q-0.109375 -0.578125 -0.109375 -2.3125l0 -5.4375l-1.515625 0l0 -2.625l1.515625 0l0 -2.46875l3.3125 -1.921875l0 4.390625l2.25 0zm2.2734375 -1.6875l0 -3.046875l3.296875 0l0 3.046875l-3.296875 0zm0 14.140625l0 -12.453125l3.296875 0l0 12.453125l-3.296875 0zm17.527344 -8.765625l-3.25 0.578125q-0.15625 -0.96875 -0.75 -1.453125q-0.578125 -0.5 -1.5 -0.5q-1.234375 0 -1.96875 0.859375q-0.71875 0.84375 -0.71875 2.828125q0 2.21875 0.734375 3.140625q0.75 0.90625 2.0 0.90625q0.9375 0 1.53125 -0.53125q0.609375 -0.53125 0.84375 -1.828125l3.234375 0.546875q-0.5 2.21875 -1.9375 3.359375q-1.421875 1.140625 -3.828125 1.140625q-2.71875 0 -4.34375 -1.71875q-1.625 -1.734375 -1.625 -4.78125q0 -3.078125 1.625 -4.796875q1.625 -1.71875 4.40625 -1.71875q2.28125 0 3.609375 0.984375q1.34375 0.984375 1.9375 2.984375zm17.171875 2.453125l0 -2.90625l7.484375 0l0 6.84375q-1.09375 1.0625 -3.171875 1.875q-2.0625 0.796875 -4.171875 0.796875q-2.703125 0 -4.703125 -1.125q-2.0 -1.140625 -3.015625 -3.234375q-1.0 -2.109375 -1.0 -4.59375q0 -2.671875 1.125 -4.75q1.125 -2.09375 3.28125 -3.21875q1.65625 -0.84375 4.125 -0.84375q3.1875 0 4.984375 1.34375q1.8125 1.328125 2.328125 3.703125l-3.453125 0.640625q-0.359375 -1.265625 -1.359375 -2.0q-1.0 -0.734375 -2.5 -0.734375q-2.28125 0 -3.625 1.453125q-1.34375 1.4375 -1.34375 4.265625q0 3.0625 1.359375 4.59375q1.359375 1.53125 3.5625 1.53125q1.09375 0 2.1875 -0.421875q1.09375 -0.4375 1.890625 -1.046875l0 -2.171875l-3.984375 0zm13.808594 6.3125l-3.296875 0l0 -12.453125l3.0625 0l0 1.78125q0.78125 -1.265625 1.40625 -1.65625q0.640625 -0.40625 1.4375 -0.40625q1.125 0 2.15625 0.625l-1.015625 2.875q-0.828125 -0.546875 -1.546875 -0.546875q-0.6875 0 -1.171875 0.390625q-0.484375 0.375 -0.765625 1.375q-0.265625 1.0 -0.265625 4.171875l0 3.84375zm8.652344 -8.65625l-2.984375 -0.53125q0.5 -1.8125 1.71875 -2.671875q1.234375 -0.875 3.671875 -0.875q2.203125 0 3.28125 0.53125q1.078125 0.515625 1.515625 1.328125q0.4375 0.796875 0.4375 2.9375l-0.03125 3.84375q0 1.640625 0.15625 2.421875q0.15625 0.78125 0.59375 1.671875l-3.265625 0q-0.125 -0.328125 -0.3125 -0.96875q-0.078125 -0.296875 -0.125 -0.390625q-0.84375 0.8125 -1.8125 1.234375q-0.953125 0.40625 -2.03125 0.40625q-1.921875 0 -3.03125 -1.046875q-1.109375 -1.046875 -1.109375 -2.640625q0 -1.046875 0.5 -1.875q0.5 -0.828125 1.40625 -1.265625q0.921875 -0.4375 2.625 -0.765625q2.3125 -0.4375 3.203125 -0.8125l0 -0.328125q0 -0.953125 -0.46875 -1.34375q-0.46875 -0.40625 -1.765625 -0.40625q-0.890625 0 -1.390625 0.34375q-0.484375 0.34375 -0.78125 1.203125zm4.40625 2.671875q-0.640625 0.21875 -2.015625 0.515625q-1.359375 0.28125 -1.78125 0.5625q-0.640625 0.46875 -0.640625 1.171875q0 0.6875 0.515625 1.1875q0.515625 0.5 1.3125 0.5q0.890625 0 1.6875 -0.578125q0.609375 -0.453125 0.796875 -1.09375q0.125 -0.421875 0.125 -1.609375l0 -0.65625zm17.894531 5.984375l-3.0625 0l0 -1.828125q-0.765625 1.0625 -1.796875 1.59375q-1.03125 0.515625 -2.09375 0.515625q-2.140625 0 -3.671875 -1.71875q-1.53125 -1.734375 -1.53125 -4.828125q0 -3.171875 1.484375 -4.8125q1.5 -1.65625 3.765625 -1.65625q2.09375 0 3.609375 1.734375l0 -6.1875l3.296875 0l0 17.1875zm-8.796875 -6.5q0 2.0 0.5625 2.890625q0.796875 1.28125 2.21875 1.28125q1.140625 0 1.9375 -0.953125q0.796875 -0.96875 0.796875 -2.890625q0 -2.15625 -0.78125 -3.09375q-0.765625 -0.9375 -1.96875 -0.9375q-1.171875 0 -1.96875 0.9375q-0.796875 0.921875 -0.796875 2.765625zm12.035156 -7.640625l0 -3.046875l3.296875 0l0 3.046875l-3.296875 0zm0 14.140625l0 -12.453125l3.296875 0l0 12.453125l-3.296875 0zm13.886719 -3.96875l3.28125 0.5625q-0.640625 1.796875 -2.015625 2.75q-1.359375 0.9375 -3.40625 0.9375q-3.25 0 -4.796875 -2.125q-1.234375 -1.703125 -1.234375 -4.28125q0 -3.09375 1.609375 -4.84375q1.625 -1.765625 4.09375 -1.765625q2.78125 0 4.375 1.84375q1.609375 1.828125 1.546875 5.609375l-8.25 0q0.03125 1.46875 0.796875 2.28125q0.765625 0.8125 1.890625 0.8125q0.78125 0 1.296875 -0.421875q0.53125 -0.421875 0.8125 -1.359375zm0.1875 -3.328125q-0.046875 -1.421875 -0.75 -2.15625q-0.703125 -0.75 -1.703125 -0.75q-1.078125 0 -1.78125 0.78125q-0.703125 0.78125 -0.6875 2.125l4.921875 0zm17.269531 7.296875l-3.296875 0l0 -6.359375q0 -2.015625 -0.21875 -2.59375q-0.203125 -0.59375 -0.6875 -0.921875q-0.46875 -0.328125 -1.125 -0.328125q-0.859375 0 -1.546875 0.46875q-0.671875 0.46875 -0.921875 1.25q-0.25 0.765625 -0.25 2.84375l0 5.640625l-3.296875 0l0 -12.453125l3.0625 0l0 1.828125q1.625 -2.109375 4.09375 -2.109375q1.09375 0 1.984375 0.40625q0.90625 0.390625 1.375 1.0q0.46875 0.609375 0.640625 1.390625q0.1875 0.765625 0.1875 2.203125l0 7.734375zm9.050781 -12.453125l0 2.625l-2.25 0l0 5.015625q0 1.53125 0.0625 1.78125q0.0625 0.25 0.28125 0.421875q0.234375 0.15625 0.5625 0.15625q0.453125 0 1.328125 -0.3125l0.28125 2.546875q-1.15625 0.5 -2.609375 0.5q-0.890625 0 -1.609375 -0.296875q-0.703125 -0.296875 -1.046875 -0.765625q-0.328125 -0.484375 -0.453125 -1.296875q-0.109375 -0.578125 -0.109375 -2.3125l0 -5.4375l-1.515625 0l0 -2.625l1.515625 0l0 -2.46875l3.3125 -1.921875l0 4.390625l2.25 0zm8.957031 -4.734375l6.34375 0q2.140625 0 3.265625 0.328125q1.515625 0.453125 2.59375 1.59375q1.078125 1.125 1.640625 2.78125q0.5625 1.640625 0.5625 4.0625q0 2.109375 -0.53125 3.65625q-0.640625 1.875 -1.84375 3.03125q-0.890625 0.875 -2.4375 1.375q-1.140625 0.359375 -3.0625 0.359375l-6.53125 0l0 -17.1875zm3.46875 2.90625l0 11.390625l2.59375 0q1.453125 0 2.09375 -0.171875q0.84375 -0.203125 1.390625 -0.703125q0.5625 -0.515625 0.90625 -1.671875q0.359375 -1.15625 0.359375 -3.140625q0 -2.0 -0.359375 -3.0625q-0.34375 -1.0625 -0.984375 -1.65625q-0.625 -0.609375 -1.59375 -0.8125q-0.71875 -0.171875 -2.84375 -0.171875l-1.5625 0zm21.066406 10.3125l3.28125 0.5625q-0.640625 1.796875 -2.015625 2.75q-1.359375 0.9375 -3.40625 0.9375q-3.25 0 -4.796875 -2.125q-1.234375 -1.703125 -1.234375 -4.28125q0 -3.09375 1.609375 -4.84375q1.625 -1.765625 4.09375 -1.765625q2.78125 0 4.375 1.84375q1.609375 1.828125 1.546875 5.609375l-8.25 0q0.03125 1.46875 0.796875 2.28125q0.765625 0.8125 1.890625 0.8125q0.78125 0 1.296875 -0.421875q0.53125 -0.421875 0.8125 -1.359375zm0.1875 -3.328125q-0.046875 -1.421875 -0.75 -2.15625q-0.703125 -0.75 -1.703125 -0.75q-1.078125 0 -1.78125 0.78125q-0.703125 0.78125 -0.6875 2.125l4.921875 0zm4.7851562 3.75l3.3125 -0.515625q0.203125 0.96875 0.84375 1.46875q0.65625 0.5 1.8125 0.5q1.28125 0 1.921875 -0.46875q0.4375 -0.328125 0.4375 -0.890625q0 -0.375 -0.234375 -0.609375q-0.25 -0.234375 -1.109375 -0.4375q-3.984375 -0.875 -5.046875 -1.609375q-1.484375 -1.0 -1.484375 -2.796875q0 -1.625 1.28125 -2.71875q1.28125 -1.109375 3.96875 -1.109375q2.546875 0 3.78125 0.84375q1.25 0.828125 1.71875 2.453125l-3.109375 0.578125q-0.1875 -0.734375 -0.75 -1.109375q-0.5625 -0.390625 -1.59375 -0.390625q-1.296875 0 -1.859375 0.359375q-0.375 0.265625 -0.375 0.671875q0 0.34375 0.328125 0.59375q0.453125 0.328125 3.078125 0.9375q2.625 0.59375 3.671875 1.453125q1.03125 0.875 1.03125 2.453125q0 1.703125 -1.4375 2.9375q-1.421875 1.234375 -4.21875 1.234375q-2.546875 0 -4.03125 -1.03125q-1.484375 -1.03125 -1.9375 -2.796875zm25.363281 -5.21875l-3.25 0.578125q-0.15625 -0.96875 -0.75 -1.453125q-0.578125 -0.5 -1.5 -0.5q-1.234375 0 -1.96875 0.859375q-0.71875 0.84375 -0.71875 2.828125q0 2.21875 0.734375 3.140625q0.75 0.90625 2.0 0.90625q0.9375 0 1.53125 -0.53125q0.609375 -0.53125 0.84375 -1.828125l3.234375 0.546875q-0.5 2.21875 -1.9375 3.359375q-1.421875 1.140625 -3.828125 1.140625q-2.71875 0 -4.34375 -1.71875q-1.625 -1.734375 -1.625 -4.78125q0 -3.078125 1.625 -4.796875q1.625 -1.71875 4.40625 -1.71875q2.28125 0 3.609375 0.984375q1.34375 0.984375 1.9375 2.984375zm9.707031 4.796875l3.28125 0.5625q-0.640625 1.796875 -2.015625 2.75q-1.359375 0.9375 -3.40625 0.9375q-3.25 0 -4.796875 -2.125q-1.234375 -1.703125 -1.234375 -4.28125q0 -3.09375 1.609375 -4.84375q1.625 -1.765625 4.09375 -1.765625q2.78125 0 4.375 1.84375q1.609375 1.828125 1.546875 5.609375l-8.25 0q0.03125 1.46875 0.796875 2.28125q0.765625 0.8125 1.890625 0.8125q0.78125 0 1.296875 -0.421875q0.53125 -0.421875 0.8125 -1.359375zm0.1875 -3.328125q-0.046875 -1.421875 -0.75 -2.15625q-0.703125 -0.75 -1.703125 -0.75q-1.078125 0 -1.78125 0.78125q-0.703125 0.78125 -0.6875 2.125l4.921875 0zm17.269531 7.296875l-3.296875 0l0 -6.359375q0 -2.015625 -0.21875 -2.59375q-0.203125 -0.59375 -0.6875 -0.921875q-0.46875 -0.328125 -1.125 -0.328125q-0.859375 0 -1.546875 0.46875q-0.671875 0.46875 -0.921875 1.25q-0.25 0.765625 -0.25 2.84375l0 5.640625l-3.296875 0l0 -12.453125l3.0625 0l0 1.828125q1.625 -2.109375 4.09375 -2.109375q1.09375 0 1.984375 0.40625q0.90625 0.390625 1.375 1.0q0.46875 0.609375 0.640625 1.390625q0.1875 0.765625 0.1875 2.203125l0 7.734375zm9.050781 -12.453125l0 2.625l-2.25 0l0 5.015625q0 1.53125 0.0625 1.78125q0.0625 0.25 0.28125 0.421875q0.234375 0.15625 0.5625 0.15625q0.453125 0 1.328125 -0.3125l0.28125 2.546875q-1.15625 0.5 -2.609375 0.5q-0.890625 0 -1.609375 -0.296875q-0.703125 -0.296875 -1.046875 -0.765625q-0.328125 -0.484375 -0.453125 -1.296875q-0.109375 -0.578125 -0.109375 -2.3125l0 -5.4375l-1.515625 0l0 -2.625l1.515625 0l0 -2.46875l3.3125 -1.921875l0 4.390625l2.25 0z" fill-rule="nonzero"></path></g></svg>

